# xmcd
#
# Track frame offsets: 
#        150
#        29083
#        51907
#        78857
#        97102
#        123320
#
# Disc length: 2176 seconds
#
# Revision: 0
# Processed by: cddbd v1.5.2PL0 Copyright (c) Steve Scherf et al.
# Submitted via: ExactAudioCopy v0.95a4
#
DISCID=4b087e06
DTITLE=Taylor Scott Band - A Closer Look, The Second Glance
DYEAR=2015
DGENRE=Blues
TTITLE0=Scarlett Headed Woman
TTITLE1=& Then I Woke Up
TTITLE2=Second Glance
TTITLE3=The Walk
TTITLE4=The Answer To Your Question
TTITLE5=& Then I Woke Up (Extended Version)
EXTD=
EXTT0=
EXTT1=
EXTT2=
EXTT3=
EXTT4=
EXTT5=
PLAYORDER=
